<?xml version="1.0" standalone="no"?>
<!DOCTYPE svg PUBLIC "-//W3C//DTD SVG 20010904//EN"
 "http://www.w3.org/TR/2001/REC-SVG-20010904/DTD/svg10.dtd">
<svg version="1.0" xmlns="http://www.w3.org/2000/svg"
 width="700.000000pt" height="700.000000pt" viewBox="0 0 700.000000 700.000000"
 preserveAspectRatio="xMidYMid meet">
<metadata>
Created by potrace 1.14, written by Peter Selinger 2001-2017
</metadata>
<g transform="translate(0.000000,700.000000) scale(0.100000,-0.100000)"
fill="#000000" stroke="none">
<path d="M3221 3586 c-481 -1604 -873 -2917 -870 -2919 6 -5 552 -167 554
-165 3 6 1738 5794 1742 5813 4 18 -20 27 -259 99 -145 43 -270 81 -278 83
-12 3 -192 -585 -889 -2911z"/>
<path d="M1005 4330 l-830 -830 830 -830 830 -830 205 205 205 205 -625 625
-625 625 623 623 c342 342 622 627 622 632 0 10 -390 405 -400 405 -3 0 -379
-373 -835 -830z"/>
<path d="M4957 4962 c-108 -108 -197 -202 -197 -207 0 -5 280 -290 622 -632
l623 -623 -625 -625 -625 -625 205 -205 205 -205 830 830 830 830 -830 830
c-456 457 -832 830 -835 830 -3 0 -94 -89 -203 -198z"/>
</g>
</svg>
